<mxfile host="app.diagrams.net" agent="Mozilla/5.0 (Windows NT 10.0; Win64; x64) AppleWebKit/537.36 (KHTML, like Gecko) Chrome/131.0.0.0 Safari/537.36" version="25.0.3">
  <diagram id="C5RBs43oDa-KdzZeNtuy" name="Page-1">
    <mxGraphModel dx="875" dy="471" grid="1" gridSize="10" guides="1" tooltips="1" connect="1" arrows="1" fold="1" page="1" pageScale="1" pageWidth="827" pageHeight="1169" math="0" shadow="0">
      <root>
        <mxCell id="WIyWlLk6GJQsqaUBKTNV-0" />
        <mxCell id="WIyWlLk6GJQsqaUBKTNV-1" parent="WIyWlLk6GJQsqaUBKTNV-0" />
        <mxCell id="r_pfli1prlgEpzS4dTJ4-4" style="edgeStyle=orthogonalEdgeStyle;rounded=0;orthogonalLoop=1;jettySize=auto;html=1;" edge="1" parent="WIyWlLk6GJQsqaUBKTNV-1" source="WIyWlLk6GJQsqaUBKTNV-3" target="r_pfli1prlgEpzS4dTJ4-3">
          <mxGeometry relative="1" as="geometry" />
        </mxCell>
        <mxCell id="WIyWlLk6GJQsqaUBKTNV-3" value="Requesting dep" style="rounded=1;whiteSpace=wrap;html=1;fontSize=12;glass=0;strokeWidth=1;shadow=0;" parent="WIyWlLk6GJQsqaUBKTNV-1" vertex="1">
          <mxGeometry x="160" y="80" width="120" height="40" as="geometry" />
        </mxCell>
        <mxCell id="WIyWlLk6GJQsqaUBKTNV-4" value="No" style="rounded=0;html=1;jettySize=auto;orthogonalLoop=1;fontSize=11;endArrow=block;endFill=0;endSize=8;strokeWidth=1;shadow=0;labelBackgroundColor=none;edgeStyle=orthogonalEdgeStyle;entryX=1;entryY=0.5;entryDx=0;entryDy=0;" parent="WIyWlLk6GJQsqaUBKTNV-1" source="WIyWlLk6GJQsqaUBKTNV-6" target="r_pfli1prlgEpzS4dTJ4-26" edge="1">
          <mxGeometry x="-0.3115" y="10" relative="1" as="geometry">
            <mxPoint as="offset" />
            <Array as="points" />
          </mxGeometry>
        </mxCell>
        <mxCell id="r_pfli1prlgEpzS4dTJ4-7" style="edgeStyle=orthogonalEdgeStyle;rounded=0;orthogonalLoop=1;jettySize=auto;html=1;" edge="1" parent="WIyWlLk6GJQsqaUBKTNV-1" source="WIyWlLk6GJQsqaUBKTNV-6">
          <mxGeometry relative="1" as="geometry">
            <mxPoint x="540" y="280" as="targetPoint" />
          </mxGeometry>
        </mxCell>
        <mxCell id="WIyWlLk6GJQsqaUBKTNV-6" value="If in budget" style="rhombus;whiteSpace=wrap;html=1;shadow=0;fontFamily=Helvetica;fontSize=12;align=center;strokeWidth=1;spacing=6;spacingTop=-4;" parent="WIyWlLk6GJQsqaUBKTNV-1" vertex="1">
          <mxGeometry x="330" y="160" width="100" height="80" as="geometry" />
        </mxCell>
        <mxCell id="WIyWlLk6GJQsqaUBKTNV-8" value="No" style="rounded=0;html=1;jettySize=auto;orthogonalLoop=1;fontSize=11;endArrow=block;endFill=0;endSize=8;strokeWidth=1;shadow=0;labelBackgroundColor=none;edgeStyle=orthogonalEdgeStyle;" parent="WIyWlLk6GJQsqaUBKTNV-1" source="WIyWlLk6GJQsqaUBKTNV-10" edge="1">
          <mxGeometry x="-0.2" y="20" relative="1" as="geometry">
            <mxPoint as="offset" />
            <mxPoint x="380" y="390" as="targetPoint" />
          </mxGeometry>
        </mxCell>
        <mxCell id="WIyWlLk6GJQsqaUBKTNV-10" value="If in stock" style="rhombus;whiteSpace=wrap;html=1;shadow=0;fontFamily=Helvetica;fontSize=12;align=center;strokeWidth=1;spacing=6;spacingTop=-4;" parent="WIyWlLk6GJQsqaUBKTNV-1" vertex="1">
          <mxGeometry x="330" y="260" width="100" height="80" as="geometry" />
        </mxCell>
        <mxCell id="r_pfli1prlgEpzS4dTJ4-17" style="edgeStyle=orthogonalEdgeStyle;rounded=0;orthogonalLoop=1;jettySize=auto;html=1;entryX=1;entryY=0.5;entryDx=0;entryDy=0;" edge="1" parent="WIyWlLk6GJQsqaUBKTNV-1" source="WIyWlLk6GJQsqaUBKTNV-12" target="WIyWlLk6GJQsqaUBKTNV-10">
          <mxGeometry relative="1" as="geometry" />
        </mxCell>
        <mxCell id="WIyWlLk6GJQsqaUBKTNV-12" value="Logistics" style="rounded=1;whiteSpace=wrap;html=1;fontSize=12;glass=0;strokeWidth=1;shadow=0;" parent="WIyWlLk6GJQsqaUBKTNV-1" vertex="1">
          <mxGeometry x="474" y="280" width="120" height="40" as="geometry" />
        </mxCell>
        <mxCell id="r_pfli1prlgEpzS4dTJ4-1" style="edgeStyle=orthogonalEdgeStyle;rounded=0;orthogonalLoop=1;jettySize=auto;html=1;entryX=0;entryY=0.5;entryDx=0;entryDy=0;" edge="1" parent="WIyWlLk6GJQsqaUBKTNV-1" source="r_pfli1prlgEpzS4dTJ4-0" target="WIyWlLk6GJQsqaUBKTNV-3">
          <mxGeometry relative="1" as="geometry" />
        </mxCell>
        <mxCell id="r_pfli1prlgEpzS4dTJ4-0" value="" style="ellipse;" vertex="1" parent="WIyWlLk6GJQsqaUBKTNV-1">
          <mxGeometry x="40" y="30" width="30" height="30" as="geometry" />
        </mxCell>
        <mxCell id="r_pfli1prlgEpzS4dTJ4-13" style="edgeStyle=orthogonalEdgeStyle;rounded=0;orthogonalLoop=1;jettySize=auto;html=1;entryX=0;entryY=0.5;entryDx=0;entryDy=0;" edge="1" parent="WIyWlLk6GJQsqaUBKTNV-1" source="r_pfli1prlgEpzS4dTJ4-3" target="r_pfli1prlgEpzS4dTJ4-12">
          <mxGeometry relative="1" as="geometry" />
        </mxCell>
        <mxCell id="r_pfli1prlgEpzS4dTJ4-16" style="edgeStyle=orthogonalEdgeStyle;rounded=0;orthogonalLoop=1;jettySize=auto;html=1;entryX=0.5;entryY=0;entryDx=0;entryDy=0;" edge="1" parent="WIyWlLk6GJQsqaUBKTNV-1" source="r_pfli1prlgEpzS4dTJ4-3" target="WIyWlLk6GJQsqaUBKTNV-6">
          <mxGeometry relative="1" as="geometry" />
        </mxCell>
        <mxCell id="r_pfli1prlgEpzS4dTJ4-3" value="GM" style="rounded=1;whiteSpace=wrap;html=1;fontSize=12;glass=0;strokeWidth=1;shadow=0;" vertex="1" parent="WIyWlLk6GJQsqaUBKTNV-1">
          <mxGeometry x="320" y="80" width="120" height="40" as="geometry" />
        </mxCell>
        <mxCell id="r_pfli1prlgEpzS4dTJ4-11" value="yes" style="text;html=1;align=center;verticalAlign=middle;resizable=0;points=[];autosize=1;strokeColor=none;fillColor=none;" vertex="1" parent="WIyWlLk6GJQsqaUBKTNV-1">
          <mxGeometry x="490" y="178" width="40" height="30" as="geometry" />
        </mxCell>
        <mxCell id="r_pfli1prlgEpzS4dTJ4-15" style="edgeStyle=orthogonalEdgeStyle;rounded=0;orthogonalLoop=1;jettySize=auto;html=1;" edge="1" parent="WIyWlLk6GJQsqaUBKTNV-1" source="r_pfli1prlgEpzS4dTJ4-12" target="r_pfli1prlgEpzS4dTJ4-3">
          <mxGeometry relative="1" as="geometry">
            <Array as="points">
              <mxPoint x="460" y="110" />
              <mxPoint x="460" y="110" />
            </Array>
          </mxGeometry>
        </mxCell>
        <mxCell id="r_pfli1prlgEpzS4dTJ4-12" value="contract Admin" style="rounded=1;whiteSpace=wrap;html=1;fontSize=12;glass=0;strokeWidth=1;shadow=0;" vertex="1" parent="WIyWlLk6GJQsqaUBKTNV-1">
          <mxGeometry x="490" y="80" width="120" height="40" as="geometry" />
        </mxCell>
        <mxCell id="r_pfli1prlgEpzS4dTJ4-18" style="edgeStyle=orthogonalEdgeStyle;rounded=0;orthogonalLoop=1;jettySize=auto;html=1;entryX=0.21;entryY=1.084;entryDx=0;entryDy=0;entryPerimeter=0;" edge="1" parent="WIyWlLk6GJQsqaUBKTNV-1" source="WIyWlLk6GJQsqaUBKTNV-10" target="WIyWlLk6GJQsqaUBKTNV-3">
          <mxGeometry relative="1" as="geometry" />
        </mxCell>
        <mxCell id="r_pfli1prlgEpzS4dTJ4-19" value="Yes (Material issued)" style="edgeLabel;html=1;align=center;verticalAlign=middle;resizable=0;points=[];" vertex="1" connectable="0" parent="r_pfli1prlgEpzS4dTJ4-18">
          <mxGeometry x="0.2679" relative="1" as="geometry">
            <mxPoint as="offset" />
          </mxGeometry>
        </mxCell>
        <mxCell id="r_pfli1prlgEpzS4dTJ4-23" value="" style="ellipse;shape=doubleEllipse;html=1;dashed=0;whiteSpace=wrap;aspect=fixed;" vertex="1" parent="WIyWlLk6GJQsqaUBKTNV-1">
          <mxGeometry x="350" y="390" width="60" height="60" as="geometry" />
        </mxCell>
        <mxCell id="r_pfli1prlgEpzS4dTJ4-24" value="Material Purchase Process" style="text;html=1;align=center;verticalAlign=middle;resizable=0;points=[];autosize=1;strokeColor=none;fillColor=none;" vertex="1" parent="WIyWlLk6GJQsqaUBKTNV-1">
          <mxGeometry x="295" y="450" width="170" height="30" as="geometry" />
        </mxCell>
        <mxCell id="r_pfli1prlgEpzS4dTJ4-25" value="Budget and Plan" style="text;html=1;align=center;verticalAlign=middle;resizable=0;points=[];autosize=1;strokeColor=none;fillColor=none;" vertex="1" parent="WIyWlLk6GJQsqaUBKTNV-1">
          <mxGeometry x="10" y="70" width="110" height="30" as="geometry" />
        </mxCell>
        <mxCell id="r_pfli1prlgEpzS4dTJ4-27" style="edgeStyle=orthogonalEdgeStyle;rounded=0;orthogonalLoop=1;jettySize=auto;html=1;entryX=0;entryY=0.75;entryDx=0;entryDy=0;" edge="1" parent="WIyWlLk6GJQsqaUBKTNV-1" source="r_pfli1prlgEpzS4dTJ4-26" target="WIyWlLk6GJQsqaUBKTNV-3">
          <mxGeometry relative="1" as="geometry">
            <Array as="points">
              <mxPoint x="80" y="125" />
              <mxPoint x="140" y="125" />
              <mxPoint x="140" y="110" />
            </Array>
          </mxGeometry>
        </mxCell>
        <mxCell id="r_pfli1prlgEpzS4dTJ4-28" value="No" style="edgeLabel;html=1;align=center;verticalAlign=middle;resizable=0;points=[];" vertex="1" connectable="0" parent="r_pfli1prlgEpzS4dTJ4-27">
          <mxGeometry x="-0.082" relative="1" as="geometry">
            <mxPoint as="offset" />
          </mxGeometry>
        </mxCell>
        <mxCell id="r_pfli1prlgEpzS4dTJ4-30" style="edgeStyle=orthogonalEdgeStyle;rounded=0;orthogonalLoop=1;jettySize=auto;html=1;" edge="1" parent="WIyWlLk6GJQsqaUBKTNV-1" source="r_pfli1prlgEpzS4dTJ4-26">
          <mxGeometry relative="1" as="geometry">
            <mxPoint x="90" y="340" as="targetPoint" />
          </mxGeometry>
        </mxCell>
        <mxCell id="r_pfli1prlgEpzS4dTJ4-33" value="yes" style="edgeLabel;html=1;align=center;verticalAlign=middle;resizable=0;points=[];" vertex="1" connectable="0" parent="r_pfli1prlgEpzS4dTJ4-30">
          <mxGeometry x="-0.0745" y="4" relative="1" as="geometry">
            <mxPoint as="offset" />
          </mxGeometry>
        </mxCell>
        <mxCell id="r_pfli1prlgEpzS4dTJ4-26" value="If budget change needed" style="rhombus;whiteSpace=wrap;html=1;shadow=0;fontFamily=Helvetica;fontSize=12;align=center;strokeWidth=1;spacing=6;spacingTop=-4;" vertex="1" parent="WIyWlLk6GJQsqaUBKTNV-1">
          <mxGeometry x="20" y="145" width="140" height="110" as="geometry" />
        </mxCell>
        <mxCell id="r_pfli1prlgEpzS4dTJ4-31" value="" style="ellipse;shape=doubleEllipse;html=1;dashed=0;whiteSpace=wrap;aspect=fixed;" vertex="1" parent="WIyWlLk6GJQsqaUBKTNV-1">
          <mxGeometry x="60" y="340" width="60" height="60" as="geometry" />
        </mxCell>
        <mxCell id="r_pfli1prlgEpzS4dTJ4-32" value="Budget change process" style="text;html=1;align=center;verticalAlign=middle;resizable=0;points=[];autosize=1;strokeColor=none;fillColor=none;" vertex="1" parent="WIyWlLk6GJQsqaUBKTNV-1">
          <mxGeometry x="15" y="405" width="150" height="30" as="geometry" />
        </mxCell>
        <mxCell id="r_pfli1prlgEpzS4dTJ4-42" style="edgeStyle=orthogonalEdgeStyle;rounded=0;orthogonalLoop=1;jettySize=auto;html=1;entryX=0;entryY=0.75;entryDx=0;entryDy=0;" edge="1" parent="WIyWlLk6GJQsqaUBKTNV-1" source="r_pfli1prlgEpzS4dTJ4-34" target="r_pfli1prlgEpzS4dTJ4-39">
          <mxGeometry relative="1" as="geometry" />
        </mxCell>
        <mxCell id="r_pfli1prlgEpzS4dTJ4-34" value="" style="ellipse;" vertex="1" parent="WIyWlLk6GJQsqaUBKTNV-1">
          <mxGeometry x="85" y="650" width="30" height="30" as="geometry" />
        </mxCell>
        <mxCell id="r_pfli1prlgEpzS4dTJ4-35" value="Material Requesting Process" style="text;html=1;align=center;verticalAlign=middle;resizable=0;points=[];autosize=1;strokeColor=none;fillColor=none;" vertex="1" parent="WIyWlLk6GJQsqaUBKTNV-1">
          <mxGeometry x="15" y="695" width="180" height="30" as="geometry" />
        </mxCell>
        <object placeholders="1" c4Name="Material Requesting Process" c4Type="SystemScopeBoundary" c4Application="Material Procurement Process" label="&lt;font style=&quot;font-size: 16px&quot;&gt;&lt;b&gt;&lt;div style=&quot;text-align: left&quot;&gt;%c4Name%&lt;/div&gt;&lt;/b&gt;&lt;/font&gt;&lt;div style=&quot;text-align: left&quot;&gt;[%c4Application%]&lt;/div&gt;" id="r_pfli1prlgEpzS4dTJ4-37">
          <mxCell style="rounded=1;fontSize=11;whiteSpace=wrap;html=1;dashed=1;arcSize=20;fillColor=none;strokeColor=#666666;fontColor=#333333;labelBackgroundColor=none;align=left;verticalAlign=bottom;labelBorderColor=none;spacingTop=0;spacing=10;dashPattern=8 4;metaEdit=1;rotatable=0;perimeter=rectanglePerimeter;noLabel=0;labelPadding=0;allowArrows=0;connectable=0;expand=0;recursiveResize=0;editable=1;pointerEvents=0;absoluteArcSize=1;points=[[0.25,0,0],[0.5,0,0],[0.75,0,0],[1,0.25,0],[1,0.5,0],[1,0.75,0],[0.75,1,0],[0.5,1,0],[0.25,1,0],[0,0.75,0],[0,0.5,0],[0,0.25,0]];" vertex="1" parent="WIyWlLk6GJQsqaUBKTNV-1">
            <mxGeometry x="10" y="20" width="730" height="490" as="geometry" />
          </mxCell>
        </object>
        <object placeholders="1" c4Name="Material Purchase Process" c4Type="SystemScopeBoundary" c4Application="Material Procurement Process" label="&lt;font style=&quot;font-size: 16px&quot;&gt;&lt;b&gt;&lt;div style=&quot;text-align: left&quot;&gt;%c4Name%&lt;/div&gt;&lt;/b&gt;&lt;/font&gt;&lt;div style=&quot;text-align: left&quot;&gt;[%c4Application%]&lt;/div&gt;" id="r_pfli1prlgEpzS4dTJ4-38">
          <mxCell style="rounded=1;fontSize=11;whiteSpace=wrap;html=1;dashed=1;arcSize=20;fillColor=none;strokeColor=#666666;fontColor=#333333;labelBackgroundColor=none;align=left;verticalAlign=bottom;labelBorderColor=none;spacingTop=0;spacing=10;dashPattern=8 4;metaEdit=1;rotatable=0;perimeter=rectanglePerimeter;noLabel=0;labelPadding=0;allowArrows=0;connectable=0;expand=0;recursiveResize=0;editable=1;pointerEvents=0;absoluteArcSize=1;points=[[0.25,0,0],[0.5,0,0],[0.75,0,0],[1,0.25,0],[1,0.5,0],[1,0.75,0],[0.75,1,0],[0.5,1,0],[0.25,1,0],[0,0.75,0],[0,0.5,0],[0,0.25,0]];" vertex="1" parent="WIyWlLk6GJQsqaUBKTNV-1">
            <mxGeometry x="10" y="600" width="740" height="350" as="geometry" />
          </mxCell>
        </object>
        <mxCell id="r_pfli1prlgEpzS4dTJ4-43" style="edgeStyle=orthogonalEdgeStyle;rounded=0;orthogonalLoop=1;jettySize=auto;html=1;entryX=0;entryY=0.5;entryDx=0;entryDy=0;" edge="1" parent="WIyWlLk6GJQsqaUBKTNV-1" source="r_pfli1prlgEpzS4dTJ4-39" target="r_pfli1prlgEpzS4dTJ4-40">
          <mxGeometry relative="1" as="geometry" />
        </mxCell>
        <mxCell id="r_pfli1prlgEpzS4dTJ4-39" value="Logistics" style="rounded=1;whiteSpace=wrap;html=1;fontSize=12;glass=0;strokeWidth=1;shadow=0;" vertex="1" parent="WIyWlLk6GJQsqaUBKTNV-1">
          <mxGeometry x="200" y="640" width="120" height="40" as="geometry" />
        </mxCell>
        <mxCell id="r_pfli1prlgEpzS4dTJ4-44" style="edgeStyle=orthogonalEdgeStyle;rounded=0;orthogonalLoop=1;jettySize=auto;html=1;entryX=0;entryY=0.5;entryDx=0;entryDy=0;" edge="1" parent="WIyWlLk6GJQsqaUBKTNV-1" source="r_pfli1prlgEpzS4dTJ4-40" target="r_pfli1prlgEpzS4dTJ4-41">
          <mxGeometry relative="1" as="geometry" />
        </mxCell>
        <mxCell id="r_pfli1prlgEpzS4dTJ4-48" style="edgeStyle=orthogonalEdgeStyle;rounded=0;orthogonalLoop=1;jettySize=auto;html=1;" edge="1" parent="WIyWlLk6GJQsqaUBKTNV-1" source="r_pfli1prlgEpzS4dTJ4-40">
          <mxGeometry relative="1" as="geometry">
            <mxPoint x="380" y="740" as="targetPoint" />
            <Array as="points">
              <mxPoint x="380" y="720" />
              <mxPoint x="380" y="720" />
            </Array>
          </mxGeometry>
        </mxCell>
        <mxCell id="r_pfli1prlgEpzS4dTJ4-55" style="edgeStyle=orthogonalEdgeStyle;rounded=0;orthogonalLoop=1;jettySize=auto;html=1;" edge="1" parent="WIyWlLk6GJQsqaUBKTNV-1" source="r_pfli1prlgEpzS4dTJ4-40" target="r_pfli1prlgEpzS4dTJ4-52">
          <mxGeometry relative="1" as="geometry">
            <Array as="points">
              <mxPoint x="450" y="710" />
              <mxPoint x="610" y="710" />
            </Array>
          </mxGeometry>
        </mxCell>
        <mxCell id="r_pfli1prlgEpzS4dTJ4-40" value="GM" style="rounded=1;whiteSpace=wrap;html=1;fontSize=12;glass=0;strokeWidth=1;shadow=0;" vertex="1" parent="WIyWlLk6GJQsqaUBKTNV-1">
          <mxGeometry x="360" y="640" width="120" height="40" as="geometry" />
        </mxCell>
        <mxCell id="r_pfli1prlgEpzS4dTJ4-45" style="edgeStyle=orthogonalEdgeStyle;rounded=0;orthogonalLoop=1;jettySize=auto;html=1;" edge="1" parent="WIyWlLk6GJQsqaUBKTNV-1" source="r_pfli1prlgEpzS4dTJ4-41" target="r_pfli1prlgEpzS4dTJ4-40">
          <mxGeometry relative="1" as="geometry">
            <Array as="points">
              <mxPoint x="500" y="670" />
              <mxPoint x="500" y="670" />
            </Array>
          </mxGeometry>
        </mxCell>
        <mxCell id="r_pfli1prlgEpzS4dTJ4-41" value="CEO" style="rounded=1;whiteSpace=wrap;html=1;fontSize=12;glass=0;strokeWidth=1;shadow=0;" vertex="1" parent="WIyWlLk6GJQsqaUBKTNV-1">
          <mxGeometry x="530" y="640" width="120" height="40" as="geometry" />
        </mxCell>
        <mxCell id="r_pfli1prlgEpzS4dTJ4-47" value="Contract Admin" style="rounded=1;whiteSpace=wrap;html=1;fontSize=12;glass=0;strokeWidth=1;shadow=0;" vertex="1" parent="WIyWlLk6GJQsqaUBKTNV-1">
          <mxGeometry x="354" y="740" width="120" height="40" as="geometry" />
        </mxCell>
        <mxCell id="r_pfli1prlgEpzS4dTJ4-56" style="edgeStyle=orthogonalEdgeStyle;rounded=0;orthogonalLoop=1;jettySize=auto;html=1;" edge="1" parent="WIyWlLk6GJQsqaUBKTNV-1">
          <mxGeometry relative="1" as="geometry">
            <mxPoint x="300" y="680" as="targetPoint" />
            <mxPoint x="610" y="840" as="sourcePoint" />
          </mxGeometry>
        </mxCell>
        <mxCell id="r_pfli1prlgEpzS4dTJ4-52" value="Finance" style="rounded=1;whiteSpace=wrap;html=1;fontSize=12;glass=0;strokeWidth=1;shadow=0;" vertex="1" parent="WIyWlLk6GJQsqaUBKTNV-1">
          <mxGeometry x="550" y="820" width="120" height="40" as="geometry" />
        </mxCell>
        <mxCell id="r_pfli1prlgEpzS4dTJ4-54" style="edgeStyle=orthogonalEdgeStyle;rounded=0;orthogonalLoop=1;jettySize=auto;html=1;entryX=0.333;entryY=1;entryDx=0;entryDy=0;entryPerimeter=0;" edge="1" parent="WIyWlLk6GJQsqaUBKTNV-1" source="r_pfli1prlgEpzS4dTJ4-47" target="r_pfli1prlgEpzS4dTJ4-40">
          <mxGeometry relative="1" as="geometry">
            <Array as="points">
              <mxPoint x="400" y="730" />
              <mxPoint x="400" y="730" />
            </Array>
          </mxGeometry>
        </mxCell>
        <mxCell id="r_pfli1prlgEpzS4dTJ4-58" style="edgeStyle=orthogonalEdgeStyle;rounded=0;orthogonalLoop=1;jettySize=auto;html=1;" edge="1" parent="WIyWlLk6GJQsqaUBKTNV-1" source="r_pfli1prlgEpzS4dTJ4-39">
          <mxGeometry relative="1" as="geometry">
            <mxPoint x="220" y="800" as="targetPoint" />
          </mxGeometry>
        </mxCell>
        <mxCell id="r_pfli1prlgEpzS4dTJ4-62" value="1" style="text;html=1;align=center;verticalAlign=middle;resizable=0;points=[];autosize=1;strokeColor=none;fillColor=none;" vertex="1" parent="WIyWlLk6GJQsqaUBKTNV-1">
          <mxGeometry x="130" y="638" width="30" height="30" as="geometry" />
        </mxCell>
        <mxCell id="r_pfli1prlgEpzS4dTJ4-63" value="2" style="text;html=1;align=center;verticalAlign=middle;resizable=0;points=[];autosize=1;strokeColor=none;fillColor=none;" vertex="1" parent="WIyWlLk6GJQsqaUBKTNV-1">
          <mxGeometry x="320" y="630" width="30" height="30" as="geometry" />
        </mxCell>
        <mxCell id="r_pfli1prlgEpzS4dTJ4-64" value="3" style="text;html=1;align=center;verticalAlign=middle;resizable=0;points=[];autosize=1;strokeColor=none;fillColor=none;" vertex="1" parent="WIyWlLk6GJQsqaUBKTNV-1">
          <mxGeometry x="490" y="630" width="30" height="30" as="geometry" />
        </mxCell>
        <mxCell id="r_pfli1prlgEpzS4dTJ4-65" value="4&lt;span style=&quot;color: rgba(0, 0, 0, 0); font-family: monospace; font-size: 0px; text-align: start;&quot;&gt;%3CmxGraphModel%3E%3Croot%3E%3CmxCell%20id%3D%220%22%2F%3E%3CmxCell%20id%3D%221%22%20parent%3D%220%22%2F%3E%3CmxCell%20id%3D%222%22%20value%3D%223%22%20style%3D%22text%3Bhtml%3D1%3Balign%3Dcenter%3BverticalAlign%3Dmiddle%3Bresizable%3D0%3Bpoints%3D%5B%5D%3Bautosize%3D1%3BstrokeColor%3Dnone%3BfillColor%3Dnone%3B%22%20vertex%3D%221%22%20parent%3D%221%22%3E%3CmxGeometry%20x%3D%22535%22%20y%3D%22608%22%20width%3D%2230%22%20height%3D%2230%22%20as%3D%22geometry%22%2F%3E%3C%2FmxCell%3E%3C%2Froot%3E%3C%2FmxGraphModel%3E&lt;/span&gt;" style="text;html=1;align=center;verticalAlign=middle;resizable=0;points=[];autosize=1;strokeColor=none;fillColor=none;" vertex="1" parent="WIyWlLk6GJQsqaUBKTNV-1">
          <mxGeometry x="490" y="668" width="30" height="30" as="geometry" />
        </mxCell>
        <mxCell id="r_pfli1prlgEpzS4dTJ4-66" value="7" style="text;html=1;align=center;verticalAlign=middle;resizable=0;points=[];autosize=1;strokeColor=none;fillColor=none;" vertex="1" parent="WIyWlLk6GJQsqaUBKTNV-1">
          <mxGeometry x="610" y="740" width="30" height="30" as="geometry" />
        </mxCell>
        <mxCell id="r_pfli1prlgEpzS4dTJ4-67" value="5" style="text;html=1;align=center;verticalAlign=middle;resizable=0;points=[];autosize=1;strokeColor=none;fillColor=none;" vertex="1" parent="WIyWlLk6GJQsqaUBKTNV-1">
          <mxGeometry x="360" y="695" width="30" height="30" as="geometry" />
        </mxCell>
        <mxCell id="r_pfli1prlgEpzS4dTJ4-68" value="6" style="text;html=1;align=center;verticalAlign=middle;resizable=0;points=[];autosize=1;strokeColor=none;fillColor=none;" vertex="1" parent="WIyWlLk6GJQsqaUBKTNV-1">
          <mxGeometry x="390" y="695" width="30" height="30" as="geometry" />
        </mxCell>
        <mxCell id="r_pfli1prlgEpzS4dTJ4-69" value="8" style="text;html=1;align=center;verticalAlign=middle;resizable=0;points=[];autosize=1;strokeColor=none;fillColor=none;" vertex="1" parent="WIyWlLk6GJQsqaUBKTNV-1">
          <mxGeometry x="414" y="810" width="30" height="30" as="geometry" />
        </mxCell>
        <mxCell id="r_pfli1prlgEpzS4dTJ4-70" value="9" style="text;html=1;align=center;verticalAlign=middle;resizable=0;points=[];autosize=1;strokeColor=none;fillColor=none;" vertex="1" parent="WIyWlLk6GJQsqaUBKTNV-1">
          <mxGeometry x="220" y="710" width="30" height="30" as="geometry" />
        </mxCell>
        <mxCell id="r_pfli1prlgEpzS4dTJ4-71" value="Requesting Dep." style="rounded=1;whiteSpace=wrap;html=1;fontSize=12;glass=0;strokeWidth=1;shadow=0;" vertex="1" parent="WIyWlLk6GJQsqaUBKTNV-1">
          <mxGeometry x="165" y="800" width="120" height="40" as="geometry" />
        </mxCell>
        <mxCell id="r_pfli1prlgEpzS4dTJ4-74" value="1. Purchase Request to Purchase order" style="text;html=1;align=center;verticalAlign=middle;resizable=0;points=[];autosize=1;strokeColor=none;fillColor=none;" vertex="1" parent="WIyWlLk6GJQsqaUBKTNV-1">
          <mxGeometry x="65" y="960" width="230" height="30" as="geometry" />
        </mxCell>
        <mxCell id="r_pfli1prlgEpzS4dTJ4-76" value="2. Send Collected proforma to GM" style="text;html=1;align=center;verticalAlign=middle;resizable=0;points=[];autosize=1;strokeColor=none;fillColor=none;" vertex="1" parent="WIyWlLk6GJQsqaUBKTNV-1">
          <mxGeometry x="60" y="978" width="210" height="30" as="geometry" />
        </mxCell>
        <mxCell id="r_pfli1prlgEpzS4dTJ4-77" value="3. Approval Request to CEO" style="text;html=1;align=center;verticalAlign=middle;resizable=0;points=[];autosize=1;strokeColor=none;fillColor=none;" vertex="1" parent="WIyWlLk6GJQsqaUBKTNV-1">
          <mxGeometry x="65" y="1000" width="170" height="30" as="geometry" />
        </mxCell>
        <mxCell id="r_pfli1prlgEpzS4dTJ4-78" value="4. Approval from the CEO" style="text;html=1;align=center;verticalAlign=middle;resizable=0;points=[];autosize=1;strokeColor=none;fillColor=none;" vertex="1" parent="WIyWlLk6GJQsqaUBKTNV-1">
          <mxGeometry x="65" y="1020" width="160" height="30" as="geometry" />
        </mxCell>
        <mxCell id="r_pfli1prlgEpzS4dTJ4-79" value="5. Contract preparation order" style="text;html=1;align=center;verticalAlign=middle;resizable=0;points=[];autosize=1;strokeColor=none;fillColor=none;" vertex="1" parent="WIyWlLk6GJQsqaUBKTNV-1">
          <mxGeometry x="65" y="1040" width="180" height="30" as="geometry" />
        </mxCell>
        <mxCell id="r_pfli1prlgEpzS4dTJ4-80" value="6. Contract document" style="text;html=1;align=center;verticalAlign=middle;resizable=0;points=[];autosize=1;strokeColor=none;fillColor=none;" vertex="1" parent="WIyWlLk6GJQsqaUBKTNV-1">
          <mxGeometry x="65" y="1060" width="140" height="30" as="geometry" />
        </mxCell>
        <mxCell id="r_pfli1prlgEpzS4dTJ4-81" value="7. Payment Preparation" style="text;html=1;align=center;verticalAlign=middle;resizable=0;points=[];autosize=1;strokeColor=none;fillColor=none;" vertex="1" parent="WIyWlLk6GJQsqaUBKTNV-1">
          <mxGeometry x="65" y="1080" width="150" height="30" as="geometry" />
        </mxCell>
        <mxCell id="r_pfli1prlgEpzS4dTJ4-83" value="8. Payment Release" style="text;html=1;align=center;verticalAlign=middle;resizable=0;points=[];autosize=1;strokeColor=none;fillColor=none;" vertex="1" parent="WIyWlLk6GJQsqaUBKTNV-1">
          <mxGeometry x="65" y="1100" width="130" height="30" as="geometry" />
        </mxCell>
        <mxCell id="r_pfli1prlgEpzS4dTJ4-84" value="9. Material issued" style="text;html=1;align=center;verticalAlign=middle;resizable=0;points=[];autosize=1;strokeColor=none;fillColor=none;" vertex="1" parent="WIyWlLk6GJQsqaUBKTNV-1">
          <mxGeometry x="65" y="1120" width="120" height="30" as="geometry" />
        </mxCell>
      </root>
    </mxGraphModel>
  </diagram>
</mxfile>
